HIERARCHY
ROOT Hips
{
 OFFSET 0.000000 0.000000 0.000000
 CHANNELS 6 Xposition Yposition Zposition Yrotation Xrotation Zrotation
 JOINT Chest
 {
  OFFSET 0.000000 9.581000 -0.001100
  CHANNELS 3 Yrotation Xrotation Zrotation
  JOINT Chest2
  {
   OFFSET 0.000000 9.561100 0.002200
   CHANNELS 3 Yrotation Xrotation Zrotation
   JOINT Chest3
   {
    OFFSET 0.000000 9.521100 0.000000
    CHANNELS 3 Yrotation Xrotation Zrotation
    JOINT Chest4
    {
     OFFSET 0.000000 9.511400 0.000000
     CHANNELS 3 Yrotation Xrotation Zrotation
     JOINT Neck
     {
      OFFSET 0.000000 14.375100 0.000000
      CHANNELS 3 Yrotation Xrotation Zrotation
      JOINT Head
      {
       OFFSET 0.000000 8.901200 0.004600
       CHANNELS 3 Yrotation Xrotation Zrotation
       End Site
       {
        OFFSET 0.000000 16.962200 0.002400
       }
      }
     }
     JOINT RightCollar
     {
      OFFSET -2.920100 9.518800 0.000000
      CHANNELS 3 Yrotation Xrotation Zrotation
      JOINT RightShoulder
      {
       OFFSET -13.664500 0.000000 0.000000
       CHANNELS 3 Yrotation Xrotation Zrotation
       JOINT RightElbow
       {
        OFFSET 0.000000 -29.999200 0.000000
        CHANNELS 3 Yrotation Xrotation Zrotation
        JOINT RightWrist
        {
         OFFSET 0.000000 -24.253600 0.000000
         CHANNELS 3 Yrotation Xrotation Zrotation
         End Site
         {
          OFFSET 0.000000 -17.918900 0.000000
         }
        }
       }
      }
     }
     JOINT LeftCollar
     {
      OFFSET 2.920100 9.518800 0.000000
      CHANNELS 3 Yrotation Xrotation Zrotation
      JOINT LeftShoulder
      {
       OFFSET 13.664500 0.000000 0.000000
       CHANNELS 3 Yrotation Xrotation Zrotation
       JOINT LeftElbow
       {
        OFFSET 0.000000 -29.999200 0.000000
        CHANNELS 3 Yrotation Xrotation Zrotation
        JOINT LeftWrist
        {
         OFFSET 0.000000 -24.253600 0.000000
         CHANNELS 3 Yrotation Xrotation Zrotation
         End Site
         {
          OFFSET 0.000000 -17.918900 0.000000
         }
        }
       }
      }
     }
    }
   }
  }
 }
 JOINT RightHip
 {
  OFFSET -7.797300 0.005300 0.000500
  CHANNELS 3 Yrotation Xrotation Zrotation
  JOINT RightKnee
  {
   OFFSET 0.000000 -40.663400 -0.000500
   CHANNELS 3 Yrotation Xrotation Zrotation
   JOINT RightAnkle
   {
    OFFSET 0.000000 -39.523700 -0.000900
    CHANNELS 3 Yrotation Xrotation Zrotation
    JOINT RightToe
    {
     OFFSET 0.000000 -6.418000 14.485300
     CHANNELS 3 Yrotation Xrotation Zrotation
     End Site
     {
      OFFSET 0.000000 -1.465200 6.326400
     }
    }
   }
  }
 }
 JOINT LeftHip
 {
  OFFSET 7.797300 0.005300 0.000500
  CHANNELS 3 Yrotation Xrotation Zrotation
  JOINT LeftKnee
  {
   OFFSET 0.000000 -40.663400 -0.000500
   CHANNELS 3 Yrotation Xrotation Zrotation
   JOINT LeftAnkle
   {
    OFFSET 0.000000 -39.523700 -0.000900
    CHANNELS 3 Yrotation Xrotation Zrotation
    JOINT LeftToe
    {
     OFFSET 0.000000 -6.418000 14.485300
     CHANNELS 3 Yrotation Xrotation Zrotation
     End Site
     {
      OFFSET 0.000000 -1.465200 6.326400
     }
    }
   }
  }
 }
}
MOTION
Frames: 8
Frame Time: 0.008333
-1.910634 126.368572 21.318797 -179.241080 -27.019442 -2.799661 -2.357076 20.795039 0.768890 -0.316894 2.593396 0.137421 -0.510361 4.487261 0.233985 -1.970887 17.609946 0.698867 1.692470 19.147740 -2.191167 2.299882 -5.449448 -2.716380 -4.025780 -0.405616 0.577972 -9.727645 -11.436537 -0.295920 -81.642389 -22.293618 66.171004 -25.387904 6.024582 15.767080 -4.672620 0.624153 0.183503 15.914808 -16.067209 2.491783 63.118592 -35.670019 -54.479683 24.924751 -13.911923 -18.252023 -11.356488 -54.226929 2.184169 -117.267410 74.093772 -116.563157 2.683790 -17.600431 -0.595964 -0.037312 0.047379 -0.016544 -12.092935 -55.745387 -5.817386 36.326735 66.356723 31.128109 -3.087255 37.451866 -1.679062 -0.022299 -0.047721 -0.009873
-1.908639 126.368846 21.328674 -179.277445 -27.103538 -2.803152 -2.326076 20.787243 0.775697 -0.303740 2.620260 0.137726 -0.510265 4.440704 0.235476 -1.927553 17.625156 0.698519 1.670852 19.210247 -2.152384 2.274623 -5.437331 -2.635788 -4.057560 -0.384937 0.566065 -9.580631 -11.344032 -0.290512 -81.354423 -22.962558 65.816121 -25.193688 5.906164 15.562251 -4.614260 0.602501 0.233249 15.536754 -15.909781 2.497130 63.018254 -35.709246 -54.302822 24.972670 -14.005538 -17.954148 -11.298722 -54.132440 2.167291 -117.116096 74.125373 -116.396940 2.678866 -17.558274 -0.587710 -0.041572 0.051516 -0.018434 -12.076921 -55.637373 -5.819755 36.367282 66.289045 31.124444 -3.046756 37.409301 -1.603103 -0.030390 -0.056193 -0.013453
-1.905780 126.368417 21.340441 -179.335830 -27.177119 -2.798505 -2.249085 20.716448 0.782816 -0.304138 2.694515 0.146053 -0.506254 4.423135 0.236027 -1.895090 17.647621 0.698669 1.645614 19.244080 -2.108457 2.209334 -5.443046 -2.539609 -4.074253 -0.488851 0.553961 -9.520566 -11.185881 -0.264483 -81.148469 -23.458067 65.510382 -25.080857 5.737637 15.319073 -4.606697 0.573236 0.250435 15.225076 -15.788521 2.547406 62.922024 -35.745093 -54.144010 24.929627 -14.073761 -17.641925 -11.153849 -54.038490 2.138650 -116.782864 74.152523 -116.013887 2.640438 -17.486409 -0.577093 -0.014518 0.067665 -0.006439 -12.016592 -55.515069 -5.851641 36.367459 66.199928 31.106801 -3.008943 37.358870 -1.535118 -0.048855 -0.018921 -0.021640
-1.904067 126.369285 21.350917 -179.358657 -27.261492 -2.801115 -2.204992 20.736596 0.788809 -0.296991 2.682166 0.143665 -0.506792 4.431929 0.240102 -1.879839 17.682277 0.698195 1.620840 19.229587 -2.048883 2.120542 -5.443707 -2.458332 -4.092075 -0.583294 0.554705 -9.501698 -11.091602 -0.224644 -81.050835 -23.726141 65.278245 -25.047508 5.539552 15.053789 -4.608304 0.520131 0.252905 14.982789 -15.684048 2.610637 62.814825 -35.768439 -54.010242 24.790127 -14.116828 -17.386873 -11.041371 -53.945787 2.106669 -116.603190 74.147130 -115.792693 2.610893 -17.411989 -0.564205 0.005181 0.039245 0.002297 -11.953788 -55.402840 -5.889901 36.327406 66.152172 31.058629 -3.022803 37.323064 -1.526185 -0.023699 -0.000662 -0.010500
-1.902081 126.371684 21.360291 -179.357321 -27.357217 -2.815003 -2.175556 20.769683 0.796759 -0.301520 2.704328 0.146313 -0.470451 4.384272 0.224428 -1.913653 17.762730 0.720352 1.554878 19.168643 -1.980434 2.058941 -5.424276 -2.419687 -4.097137 -0.681494 0.549960 -9.510697 -11.035105 -0.172688 -81.071461 -23.764461 65.125241 -25.079663 5.343316 14.796995 -4.596882 0.429062 0.241112 14.802814 -15.578337 2.670525 62.680293 -35.796464 -53.890097 24.603264 -14.141280 -17.221668 -10.973367 -53.846313 2.079161 -116.481191 74.143768 -115.643865 2.602391 -17.372173 -0.551990 0.009343 0.031920 0.004142 -11.920957 -55.289366 -5.918623 36.289553 66.124633 31.015075 -3.008061 37.270753 -1.505230 -0.016058 -0.001101 -0.007115
-1.901204 126.376127 21.367497 -179.344060 -27.471424 -2.826753 -2.152792 20.818735 0.797980 -0.299084 2.714975 0.146387 -0.466274 4.400721 0.224504 -1.897047 17.785080 0.720558 1.487549 19.164824 -1.935023 1.942660 -5.444714 -2.338443 -4.141650 -0.777084 0.563949 -9.533714 -10.985147 -0.115928 -81.195845 -23.609945 65.040620 -25.155618 5.164705 14.577081 -4.631862 0.393539 0.256842 14.683012 -15.529955 2.690084 62.510356 -35.853929 -53.757221 24.433665 -14.145031 -17.142211 -10.937342 -53.730343 2.045400 -116.427497 74.143586 -115.579857 2.601519 -17.347321 -0.536547 0.004984 0.024174 0.002209 -11.878664 -55.158245 -5.967228 36.244611 66.106860 30.976113 -3.011798 37.215136 -1.511620 -0.007559 0.002833 -0.003349
-1.901024 126.377053 21.382895 -179.340083 -27.533023 -2.828324 -2.138634 20.846884 0.795625 -0.273667 2.679102 0.140656 -0.488236 4.451243 0.231320 -1.860282 17.796312 0.713836 1.435877 19.165438 -1.899204 1.791423 -5.455205 -2.252757 -4.202139 -0.886632 0.583115 -9.549412 -10.942434 -0.063012 -81.390340 -23.331105 65.001212 -25.257127 4.996637 14.408211 -4.666812 0.268426 0.267072 14.563895 -15.420232 2.719209 62.311692 -35.956164 -53.592015 24.303388 -14.128058 -17.123793 -10.834977 -53.674520 1.986846 -116.314237 74.133109 -115.428140 2.597447 -17.303275 -0.519322 0.006589 0.020769 0.002920 -11.811669 -55.068213 -6.021941 36.108818 66.081785 30.859635 -3.003120 37.177170 -1.518694 -0.004993 0.013474 -0.002213
-1.902311 126.383511 21.388473 -179.308601 -27.658811 -2.833028 -2.148843 20.940067 0.781738 -0.256264 2.656908 0.140506 -0.503281 4.488543 0.232346 -1.826739 17.810841 0.710321 1.341322 19.160262 -1.858807 1.678759 -5.435084 -2.210738 -4.257869 -0.942185 0.603114 -9.557085 -10.971198 -0.010345 -81.617847 -23.011201 64.979999 -25.364209 4.841932 14.294824 -4.697997 0.149699 0.278911 14.441067 -15.330211 2.722238 62.094511 -36.103792 -53.393464 24.208935 -14.100345 -17.133925 -10.718459 -53.559776 1.877369 -116.242477 74.121641 -115.314456 2.597372 -17.256305 -0.504843 0.007790 0.006959 0.003452 -11.749880 -54.920265 -6.100937 35.914313 66.065244 30.702838 -3.038578 37.162620 -1.599953 -0.001471 0.006127 -0.000652
